<svg width="34" height="34" viewBox="0 0 34 34" fill="none" xmlns="http://www.w3.org/2000/svg">
<g clip-path="url(#clip0_1_2)">
<path d="M24 8H10V30H24V8Z" fill="white"/>
<path fill-rule="evenodd" clip-rule="evenodd" d="M9 26V36H25V26H35V10H25V0H9V10H-1V26H9ZM19.5001 10.5029H16.8708C16.7301 10.5029 16.6444 10.527 16.5979 10.5497C15.7625 10.9573 15.2394 11.6764 14.9175 12.528C14.8583 12.6846 14.8068 12.8436 14.7622 13.0029H12.7045C12.786 12.6158 12.8971 12.2165 13.0467 11.8209C13.4893 10.6497 14.2959 9.4476 15.7209 8.7523C16.1149 8.56 16.5214 8.503 16.8708 8.5029H19.5001C20.0523 8.5029 20.5001 8.9506 20.5001 9.5029C20.5001 10.0552 20.0523 10.5029 19.5001 10.5029ZM11 14.0029C10.4478 14.0029 9.9874 14.4588 10.1366 14.9906C10.7143 17.05 13.0631 18.6522 16.0001 18.9523V20.5105C15.3051 20.5275 14.5829 20.5829 13.9705 20.7612C13.492 20.9005 12.9849 21.1393 12.5969 21.575C12.1907 22.0312 12 22.6074 12 23.25C12 23.8932 12.1902 24.47 12.5958 24.9272C12.9836 25.3641 13.4906 25.6038 13.9696 25.7437C14.2897 25.8372 14.6397 25.897 15 25.9353V23.9217C14.8289 23.8972 14.6722 23.8653 14.5305 23.8239C14.2595 23.7448 14.1415 23.6558 14.0918 23.5997C14.0599 23.5638 14 23.4833 14 23.25C14 23.0191 14.0594 22.9401 14.0907 22.905C14.1402 22.8493 14.2581 22.7605 14.5296 22.6814C14.9135 22.5697 15.4074 22.5277 16.0001 22.5121V23.9938L16 25.9954L16.0001 28.0029H13.0001V30.0029H21.0001V28.0029H18.0001V22.4661C19.1018 22.3797 19.9948 22.1376 20.6667 21.7046C21.6123 21.0953 22 20.1881 22 19.2252C22 18.7019 21.8853 18.199 21.6292 17.7536C22.754 17.0448 23.5574 16.0819 23.8635 14.9906C24.0127 14.4588 23.5523 14.0029 23.0001 14.0029H11ZM18.0001 20.4584C18.8089 20.3795 19.3 20.2061 19.5833 20.0235C19.8878 19.8272 20 19.5956 20 19.2252C20 18.9436 19.9363 18.7528 19.7715 18.5957C19.2147 18.7674 18.6205 18.8889 18.0001 18.9523V20.4584Z" fill="#20C997"/>
</g>
<defs>
<clipPath id="clip0_1_2">
<rect width="34" height="34" fill="white"/>
</clipPath>
</defs>
</svg>
